<svg xmlns="http://www.w3.org/2000/svg" xmlns:xlink="http://www.w3.org/1999/xlink" width="149" height="149" viewBox="0 0 149 149"><defs><style>.a{fill:#798996;}.b{fill:#eed370;}.c{filter:url(#a);}</style><filter id="a" x="0" y="0" width="149" height="149" filterUnits="userSpaceOnUse"><feOffset dx="3" dy="3" input="SourceAlpha"/><feGaussianBlur stdDeviation="7.5" result="b"/><feFlood flood-opacity="0.161"/><feComposite operator="in" in2="b"/><feComposite in="SourceGraphic"/></filter></defs><g transform="translate(19.5 19.5)"><g transform="translate(-1772 -935)"><g transform="translate(59 -155)"><g class="c" transform="matrix(1, 0, 0, 1, 1693.5, 1070.5)"><circle class="a" cx="52" cy="52" r="52" transform="translate(19.5 19.5)"/></g></g></g><g transform="translate(-1770.667 -929)"><path class="b" d="M69.8,116.221a3.1,3.1,0,0,0,2.145-.821l9.1-8.78a52.708,52.708,0,0,0,11.223,1.194c10.093,0,19.62-2.773,26.81-7.8,7.338-5.13,11.381-12,11.381-19.331s-4.05-14.2-11.381-19.33c-7.19-5.026-16.717-7.794-26.81-7.794s-19.62,2.768-26.8,7.794c-7.338,5.13-11.379,12-11.379,19.33,0,7.826,4.667,15.165,12.861,20.314v12.825a2.656,2.656,0,0,0,2.849,2.4Zm10.29-14.729a3.1,3.1,0,0,0-2.145.821l-5.3,5.105V99.762A2.327,2.327,0,0,0,71.4,97.776c-7.386-4.263-11.62-10.492-11.62-17.092,0-12.3,14.572-22.315,32.484-22.315s32.484,10.011,32.484,22.315S110.185,103,92.273,103a45.676,45.676,0,0,1-11.352-1.4A3.321,3.321,0,0,0,80.09,101.492Z" transform="translate(1730.577 896.44)"/><path class="b" d="M189.331,239.679a1.938,1.938,0,0,0,.279-.013c.089-.013.19-.025.277-.042a2.33,2.33,0,0,0,.27-.068c.08-.027.179-.059.264-.095s.169-.076.251-.12a2.768,2.768,0,0,0,.241-.142c.076-.051.152-.106.224-.165a2.811,2.811,0,0,0,.209-.19c.066-.066.129-.137.19-.209a2.611,2.611,0,0,0,.165-.224,2.776,2.776,0,0,0,.142-.241q.066-.123.12-.251a2.691,2.691,0,0,0,.093-.262,2.911,2.911,0,0,0,.11-.547,2.786,2.786,0,0,0,.015-.281,2.723,2.723,0,0,0-.015-.279,2.89,2.89,0,0,0-.11-.549,2.693,2.693,0,0,0-.093-.262q-.055-.127-.12-.251a2.778,2.778,0,0,0-.142-.241c-.051-.076-.106-.152-.165-.224a2.815,2.815,0,0,0-.19-.209c-.066-.066-.137-.129-.209-.19a2.611,2.611,0,0,0-.224-.165,2.367,2.367,0,0,0-.241-.142q-.123-.065-.251-.12a2.571,2.571,0,0,0-.264-.095c-.087-.027-.179-.049-.27-.068s-.19-.032-.277-.042a2.76,2.76,0,0,0-.56,0c-.091.01-.19.025-.275.042a2.583,2.583,0,0,0-.272.068,2.71,2.71,0,0,0-.262.095c-.085.036-.171.076-.253.12a2.558,2.558,0,0,0-.239.142,2.721,2.721,0,0,0-.224.165,2.811,2.811,0,0,0-.209.19c-.066.066-.129.137-.19.209a2.617,2.617,0,0,0-.165.224,2.774,2.774,0,0,0-.142.241q-.065.123-.12.251c-.036.085-.066.175-.095.262s-.049.19-.068.272a2.747,2.747,0,0,0-.055.557,2.79,2.79,0,0,0,.013.281,2.755,2.755,0,0,0,.042.275,2.7,2.7,0,0,0,.068.272c.027.082.059.177.095.262s.076.169.12.251a2.774,2.774,0,0,0,.142.241c.051.076.106.152.165.224a2.815,2.815,0,0,0,.19.209c.066.066.137.129.209.19a2.727,2.727,0,0,0,.224.165q.118.076.239.142c.082.044.167.084.253.12s.175.066.262.095a2.58,2.58,0,0,0,.272.068c.091.019.19.032.275.042A2.632,2.632,0,0,0,189.331,239.679Z" transform="translate(1643.708 744.275)"/><path class="b" d="M300.363,239.683a2.744,2.744,0,0,0,.279-.013c.093-.009.19-.025.277-.042a2.326,2.326,0,0,0,.27-.068c.08-.027.177-.059.262-.095s.171-.076.253-.12a2.96,2.96,0,0,0,.464-.308,2.454,2.454,0,0,0,.207-.19,2.786,2.786,0,0,0,.19-.209c.059-.072.116-.148.167-.224a2.771,2.771,0,0,0,.142-.241q.065-.123.12-.251c.034-.085.066-.175.093-.262a2.272,2.272,0,0,0,.068-.272,2.941,2.941,0,0,0,.057-.557,2.791,2.791,0,0,0-.015-.281,2.757,2.757,0,0,0-.042-.275,2.279,2.279,0,0,0-.068-.272c-.027-.087-.059-.177-.093-.262a2.526,2.526,0,0,0-.12-.251,2.765,2.765,0,0,0-.142-.241c-.051-.076-.108-.152-.167-.224a2.785,2.785,0,0,0-.19-.209c-.065-.065-.135-.129-.207-.19a2.959,2.959,0,0,0-.465-.308c-.082-.044-.165-.084-.253-.12s-.173-.066-.262-.1a2.672,2.672,0,0,0-.27-.068c-.091-.019-.19-.032-.277-.042a3.065,3.065,0,0,0-.57,0c-.091.009-.19.025-.275.042a2.584,2.584,0,0,0-.272.068c-.082.027-.177.059-.262.1s-.171.076-.253.12-.161.091-.239.142a2.441,2.441,0,0,0-.224.165,2.818,2.818,0,0,0-.209.19c-.066.066-.129.137-.19.209a2.618,2.618,0,0,0-.165.224,2.788,2.788,0,0,0-.144.241c-.042.082-.084.165-.118.251a2.708,2.708,0,0,0-.095.262c-.027.089-.049.19-.068.272a2.6,2.6,0,0,0-.042.275,2.772,2.772,0,0,0-.013.281,2.717,2.717,0,0,0,.013.279c.009.093.025.19.042.277a2.464,2.464,0,0,0,.068.272,2.708,2.708,0,0,0,.095.262c.034.085.076.169.118.251a2.788,2.788,0,0,0,.144.241c.051.076.106.152.165.224a2.811,2.811,0,0,0,.19.209c.066.066.137.129.209.19a2.429,2.429,0,0,0,.224.165q.116.076.239.142c.082.044.167.084.253.12s.175.066.262.095a2.577,2.577,0,0,0,.272.068c.091.019.19.032.275.042A2.778,2.778,0,0,0,300.363,239.683Z" transform="translate(1511.589 744.27)"/><path class="b" d="M244.84,239.668a2.87,2.87,0,0,0,2.016-.834,2.793,2.793,0,0,0,.19-.209c.059-.072.114-.148.167-.224a2.177,2.177,0,0,0,.142-.241,2.51,2.51,0,0,0,.118-.251,2.705,2.705,0,0,0,.095-.262c.027-.089.049-.19.068-.272a2.763,2.763,0,0,0,.042-.275,2.98,2.98,0,0,0,0-.57,2.764,2.764,0,0,0-.042-.275,2.77,2.77,0,0,0-.163-.534,2.512,2.512,0,0,0-.118-.251c-.044-.084-.093-.163-.142-.241a2.372,2.372,0,0,0-.167-.224,2.792,2.792,0,0,0-.19-.209,2.872,2.872,0,0,0-2.295-.821c-.093.009-.19.025-.277.042s-.18.042-.27.068a2.531,2.531,0,0,0-.262.095c-.085.036-.171.076-.253.12a2.96,2.96,0,0,0-.465.308,2.453,2.453,0,0,0-.207.19,2.786,2.786,0,0,0-.19.209c-.059.072-.116.148-.167.224a2.782,2.782,0,0,0-.142.241q-.065.123-.12.251c-.034.085-.066.175-.093.262a2.28,2.28,0,0,0-.068.272,2.754,2.754,0,0,0-.042.275,2.608,2.608,0,0,0,0,.57,2.759,2.759,0,0,0,.042.275,2.279,2.279,0,0,0,.068.272c.027.087.059.177.093.262a2.521,2.521,0,0,0,.12.251,2.778,2.778,0,0,0,.143.241c.051.076.108.152.167.224a2.792,2.792,0,0,0,.19.209c.065.065.135.127.207.19a2.959,2.959,0,0,0,.465.308c.082.044.167.084.253.12s.173.066.262.095.19.049.27.068a2.5,2.5,0,0,0,.277.042A2.751,2.751,0,0,0,244.84,239.668Z" transform="translate(1577.654 744.288)"/></g></g></svg>