<svg xmlns="http://www.w3.org/2000/svg" viewBox="0 0 30.89 67"><defs><style>.cls-1{fill:#798996;}.cls-2{fill:#1d2933;}</style></defs><g id="Layer_2" data-name="Layer 2"><g id="Layer_1-2" data-name="Layer 1"><path class="cls-1" d="M26.74,8.14c-.3.11-.6.24-.91.38s-.42.2-.63.31c-5.61,2.95-8.41,9.09-9.76,13.52-1.35-4.43-4.15-10.57-9.76-13.52-.21-.11-.42-.22-.64-.31s-.6-.27-.9-.38A14.2,14.2,0,0,0,5.19,26.59l0,0v0a14.19,14.19,0,0,0,7.38,4.08,14.66,14.66,0,0,0,2.11.27l.75,0h.34A14.2,14.2,0,0,0,26.74,8.14ZM8.49,20.06a1.88,1.88,0,1,1,1.88-1.88A1.88,1.88,0,0,1,8.49,20.06Zm13.9,0a1.88,1.88,0,1,1,1.88-1.88A1.88,1.88,0,0,1,22.39,20.06Z"/><path class="cls-2" d="M29.14,5.4a15.93,15.93,0,0,0-2.4.56l-.91.3-.63.25c-5.61,2.38-8.41,7.31-9.76,10.86-1.35-3.55-4.15-8.48-9.76-10.86L5,6.26q-.45-.16-.9-.3a15.93,15.93,0,0,0-2.4-.56A19,19,0,0,1,15.44,0,19.08,19.08,0,0,1,29.14,5.4Z"/><path class="cls-2" d="M18.39,49.23a.22.22,0,0,0,0-.08,3,3,0,0,0-5.92,0,.22.22,0,0,0,0,.08v.13a2.85,2.85,0,0,0,2.06,2.47V67L1,49.36l0-.08,0-.23a8.33,8.33,0,0,0,4-1.39c5.42-3.58,7-12.59,7.36-15.22a16.71,16.71,0,0,0,3,.27,17.17,17.17,0,0,0,3.39-.34s0,.06,0,.09,0,.19,0,.3a2.51,2.51,0,0,1,0,.27c0,.07,0,.15,0,.23s0,.2.05.3c.06.38.14.82.24,1.29,0,.12.05.26.08.39.13.59.28,1.24.46,1.91l.09.29c0,.1.05.2.08.3.09.3.18.6.28.91l.1.3c0,.1.07.2.1.31l.34.93.13.31c0,.1.08.21.13.31.11.28.23.56.36.85a.36.36,0,0,1,0,.09l.15.3.19.39.12.22.16.3a3.07,3.07,0,0,0,.17.31A16.14,16.14,0,0,0,23.34,45l.21.27a11.35,11.35,0,0,0,2.66,2.52,8.57,8.57,0,0,0,3.61,1.36l0,.15v.08L16.33,67V51.83a2.85,2.85,0,0,0,2.06-2.47Z"/><path class="cls-1" d="M10.72,32.05c-.53,3.28-2.21,10.83-6.9,14A7.81,7.81,0,0,1,0,47.41l3.41-19.6A17.18,17.18,0,0,0,10.72,32.05Z"/><path class="cls-1" d="M30.89,47.49a8,8,0,0,1-3.45-1.33A11,11,0,0,1,24.9,43.7a2.56,2.56,0,0,1-.2-.26,15.33,15.33,0,0,1-1.06-1.68l-.17-.29-.15-.3L23.21,41,23,40.58c-.05-.1-.1-.2-.14-.3a.36.36,0,0,1,0-.09c-.13-.27-.24-.55-.35-.82l-.13-.31c0-.1-.08-.2-.11-.3-.12-.31-.22-.61-.33-.92l-.1-.29c0-.1-.06-.2-.1-.3-.09-.3-.18-.6-.26-.89,0-.09,0-.19-.08-.28s-.05-.2-.08-.29c-.18-.66-.32-1.29-.44-1.87,0-.13-.05-.26-.08-.38-.09-.46-.17-.88-.23-1.25,0-.11,0-.2,0-.3v0a17.28,17.28,0,0,0,7-4.14Z"/></g></g></svg>